<svg xmlns="http://www.w3.org/2000/svg" version="1.1" xmlns:xlink="http://www.w3.org/1999/xlink" xmlns:svgjs="http://svgjs.com/svgjs" width="24" height="24" x="0" y="0" viewBox="0 0 384 384" style="enable-background:new 0 0 512 512" xml:space="preserve" class="">
    <path xmlns="http://www.w3.org/2000/svg" d="m341.332031 0h-298.664062c-23.566407 0-42.667969 19.101562-42.667969 42.667969v298.664062c0 23.566407 19.101562 42.667969 42.667969 42.667969h298.664062c23.566407 0 42.667969-19.101562 42.667969-42.667969v-298.664062c0-23.566407-19.101562-42.667969-42.667969-42.667969zm-202.664062 298.667969c5.890625 0 10.664062 4.773437 10.664062 10.664062s-4.773437 10.667969-10.664062 10.667969h-64c-5.890625 0-10.667969-4.777344-10.667969-10.667969v-64c0-5.890625 4.777344-10.664062 10.667969-10.664062s10.664062 4.773437 10.664062 10.664062v38.25l45.792969-45.789062c4.1875-4.042969 10.839844-3.984375 14.953125.128906s4.171875 10.765625.128906 14.953125l-45.789062 45.792969zm7.539062-167.542969c2.773438 2.679688 3.886719 6.644531 2.910157 10.375-.976563 3.726562-3.890626 6.640625-7.617188 7.617188-3.730469.976562-7.695312-.136719-10.375-2.910157l-45.792969-45.789062v38.25c0 5.890625-4.773437 10.664062-10.664062 10.664062s-10.667969-4.773437-10.667969-10.664062v-64c0-5.890625 4.777344-10.667969 10.667969-10.667969h64c5.890625 0 10.664062 4.777344 10.664062 10.667969s-4.773437 10.664062-10.664062 10.664062h-38.25zm173.792969 178.207031c0 5.890625-4.777344 10.667969-10.667969 10.667969h-64c-5.890625 0-10.664062-4.777344-10.664062-10.667969s4.773437-10.664062 10.664062-10.664062h38.25l-45.789062-45.792969c-4.042969-4.1875-3.984375-10.839844.128906-14.953125s10.765625-4.171875 14.953125-.128906l45.792969 45.789062v-38.25c0-5.890625 4.773437-10.664062 10.664062-10.664062s10.667969 4.773437 10.667969 10.664062zm0-170.664062c0 5.890625-4.777344 10.664062-10.667969 10.664062s-10.664062-4.773437-10.664062-10.664062v-38.25l-45.792969 45.789062c-4.1875 4.042969-10.839844 3.984375-14.953125-.128906s-4.171875-10.765625-.128906-14.953125l45.789062-45.792969h-38.25c-5.890625 0-10.664062-4.773437-10.664062-10.664062s4.773437-10.667969 10.664062-10.667969h64c5.890625 0 10.667969 4.777344 10.667969 10.667969zm0 0" fill="#fff" data-original="#fff"></path>
</svg>
