<svg xmlns="http://www.w3.org/2000/svg" version="1.1" xmlns:xlink="http://www.w3.org/1999/xlink" xmlns:svgjs="http://svgjs.com/svgjs" width="24" height="24" x="0" y="0" viewBox="0 0 384 384" style="enable-background:new 0 0 512 512" xml:space="preserve" class="">
    <path xmlns="http://www.w3.org/2000/svg" d="m341.332031 0h-298.664062c-23.566407 0-42.667969 19.101562-42.667969 42.667969v298.664062c0 23.566407 19.101562 42.667969 42.667969 42.667969h298.664062c23.566407 0 42.667969-19.101562 42.667969-42.667969v-298.664062c0-23.566407-19.101562-42.667969-42.667969-42.667969zm-192 309.332031c0 5.890625-4.773437 10.667969-10.664062 10.667969s-10.667969-4.777344-10.667969-10.667969v-38.25l-45.792969 45.792969c-4.183593 4.042969-10.835937 3.984375-14.953125-.128906-4.113281-4.117188-4.171875-10.769532-.128906-14.953125l45.792969-45.792969h-38.25c-5.890625 0-10.667969-4.777344-10.667969-10.667969s4.777344-10.664062 10.667969-10.664062h64c5.890625 0 10.664062 4.773437 10.664062 10.664062zm0-170.664062c0 5.890625-4.773437 10.664062-10.664062 10.664062h-64c-5.890625 0-10.667969-4.773437-10.667969-10.664062s4.777344-10.667969 10.667969-10.667969h38.25l-45.792969-45.792969c-4.042969-4.183593-3.984375-10.835937.128906-14.953125 4.117188-4.113281 10.769532-4.171875 14.953125-.128906l45.792969 45.792969v-38.25c0-5.890625 4.777344-10.667969 10.667969-10.667969s10.664062 4.777344 10.664062 10.667969zm167.542969 163.125c2.773438 2.675781 3.882812 6.644531 2.910156 10.371093-.976562 3.730469-3.890625 6.644532-7.621094 7.621094-3.726562.972656-7.695312-.136718-10.371093-2.910156l-45.792969-45.792969v38.25c0 5.890625-4.777344 10.667969-10.667969 10.667969s-10.664062-4.777344-10.664062-10.667969v-64c0-5.890625 4.773437-10.664062 10.664062-10.664062h64c5.890625 0 10.667969 4.773437 10.667969 10.664062s-4.777344 10.667969-10.667969 10.667969h-38.25zm-7.542969-173.792969c5.890625 0 10.667969 4.777344 10.667969 10.667969s-4.777344 10.664062-10.667969 10.664062h-64c-5.890625 0-10.664062-4.773437-10.664062-10.664062v-64c0-5.890625 4.773437-10.667969 10.664062-10.667969s10.667969 4.777344 10.667969 10.667969v38.25l45.792969-45.792969c4.183593-4.042969 10.835937-3.984375 14.953125.128906 4.113281 4.117188 4.171875 10.769532.128906 14.953125l-45.792969 45.792969zm0 0" fill="#fff" data-original="#fff"></path>
</svg>
