<svg width="110" height="60" viewBox="0 0 110 60" fill="none" xmlns="http://www.w3.org/2000/svg">
<rect width="110" height="60" fill="#F3F3F3"/>
<path fill-rule="evenodd" clip-rule="evenodd" d="M71.2635 13.7365C73.3992 15.8723 75.0934 18.4078 76.2492 21.1983C77.4051 23.9888 78 26.9796 78 30C78 33.0204 77.4051 36.0112 76.2492 38.8017C75.0934 41.5922 73.3992 44.1277 71.2635 46.2635C69.1277 48.3992 66.5922 50.0934 63.8017 51.2492C61.0112 52.4051 58.0204 53 55 53C51.9796 53 48.9888 52.4051 46.1983 51.2492C43.4078 50.0934 40.8723 48.3992 38.7365 46.2635C34.4232 41.9501 32 36.1 32 30C32 23.9 34.4232 18.0499 38.7365 13.7365C43.0499 9.42321 48.9 7 55 7C61.1 7 66.9501 9.42321 71.2635 13.7365ZM65.7128 44.3264L40.6711 19.2872C38.0923 22.7327 36.8419 26.9922 37.1492 31.2849C37.4564 35.5776 39.3006 39.6157 42.3438 42.6588C45.3869 45.7019 49.425 47.5462 53.7177 47.8534C58.0103 48.1606 62.2699 46.9102 65.7154 44.3315L65.7128 44.3264ZM67.6499 17.3501C70.6912 20.3922 72.5348 24.428 72.8431 28.7186C73.1515 33.0091 71.9039 37.2671 69.3289 40.7128L44.2846 15.6711C47.7303 13.0949 51.989 11.8466 56.2803 12.1549C60.5715 12.4633 64.6079 14.3077 67.6499 17.3501Z" fill="#E1E1E1"/>
</svg>
