<svg width="1054" height="220" viewBox="0 0 1054 220" fill="none" xmlns="http://www.w3.org/2000/svg">
<path fill-rule="evenodd" clip-rule="evenodd" d="M0 30C0 13.4315 13.4315 0 30 0H486C502.569 0 516 13.4315 516 30V190C516 206.569 502.569 220 486 220H30C13.4315 220 0 206.569 0 190V30ZM81.976 169.664C71.224 169.664 63.16 166.736 57.784 160.88C52.408 154.928 49.48 145.76 49 133.376L69.448 129.92C69.64 137.312 70.648 142.784 72.472 146.336C74.392 149.792 77.224 151.52 80.968 151.52C83.752 151.52 85.768 150.656 87.016 148.928C88.264 147.104 88.888 144.8 88.888 142.016C88.888 137.408 87.832 133.52 85.72 130.352C83.704 127.088 80.488 123.536 76.072 119.696L63.976 109.184C59.176 105.152 55.48 100.832 52.888 96.224C50.392 91.616 49.144 86.096 49.144 79.664C49.144 70.16 51.928 62.864 57.496 57.776C63.16 52.592 70.936 50 80.824 50C91.384 50 98.728 53.072 102.856 59.216C106.984 65.264 109.336 72.992 109.912 82.4L89.32 85.424C89.128 79.28 88.408 74.768 87.16 71.888C86.008 68.912 83.656 67.424 80.104 67.424C77.512 67.424 75.496 68.432 74.056 70.448C72.616 72.368 71.896 74.672 71.896 77.36C71.896 81.2 72.712 84.464 74.344 87.152C76.072 89.744 78.76 92.624 82.408 95.792L94.216 106.16C99.784 111.056 104.152 116.24 107.32 121.712C110.488 127.088 112.072 133.424 112.072 140.72C112.072 146.288 110.824 151.28 108.328 155.696C105.832 160.016 102.28 163.424 97.672 165.92C93.16 168.416 87.928 169.664 81.976 169.664ZM130.775 160.016C136.055 166.448 144.887 169.664 157.271 169.664C169.559 169.664 178.343 166.448 183.623 160.016C188.999 153.488 191.687 143.984 191.687 131.504V87.872C191.687 75.392 188.999 65.984 183.623 59.648C178.343 53.216 169.559 50 157.271 50C144.887 50 136.055 53.168 130.775 59.504C125.495 65.84 122.855 75.296 122.855 87.872V131.36C122.855 143.936 125.495 153.488 130.775 160.016ZM157.271 152.672C161.303 152.672 163.991 151.328 165.335 148.64C166.775 145.856 167.495 142.064 167.495 137.264V82.112C167.495 77.312 166.775 73.616 165.335 71.024C163.991 68.336 161.303 66.992 157.271 66.992C153.239 66.992 150.503 68.336 149.063 71.024C147.719 73.616 147.047 77.312 147.047 82.112V137.264C147.047 142.16 147.719 145.952 149.063 148.64C150.407 151.328 153.143 152.672 157.271 152.672ZM207.552 51.44H224.112L250.032 112.064V51.44H269.76V168.08H253.776L227.856 103.568V168.08H207.552V51.44ZM311.19 51.44H287.574V168.08H311.19V51.44ZM361.311 169.664C348.927 169.664 340.143 166.352 334.959 159.728C329.775 153.008 327.183 143.36 327.183 130.784V89.024C327.183 76.16 329.727 66.464 334.815 59.936C339.999 53.312 348.831 50 361.311 50C373.215 50 381.615 52.928 386.511 58.784C391.503 64.544 393.999 72.848 393.999 83.696V93.488H370.959V82.688C370.959 79.232 370.767 76.448 370.383 74.336C370.095 72.224 369.231 70.496 367.791 69.152C366.447 67.712 364.335 66.992 361.455 66.992C357.135 66.992 354.351 68.384 353.103 71.168C351.855 73.952 351.231 78.032 351.231 83.408V136.4C351.231 141.872 351.951 145.952 353.391 148.64C354.831 151.328 357.519 152.672 361.455 152.672C365.487 152.672 368.079 151.328 369.231 148.64C370.383 145.856 370.959 141.776 370.959 136.4V125.024H393.999V134.672C393.999 145.808 391.551 154.448 386.655 160.592C381.759 166.64 373.311 169.664 361.311 169.664ZM411 90.6644L419.5 85.5781C423.785 92.9516 426 101.088 426 110.23C426 119.373 423.785 127.205 419.5 134.578L411 129.796C414.342 124.045 416.256 117.361 416.256 110.23C416.256 103.1 414.342 96.4157 411 90.6644ZM428.17 80.1289C433.311 88.977 436.256 99.2599 436.256 110.23C436.256 121.201 433.311 131.484 428.17 140.332L436.822 145.349C442.821 135.026 446.256 123.029 446.256 110.23C446.256 97.4314 442.821 85.4348 436.822 75.112L428.17 80.1289ZM456.256 110.23C456.256 95.603 452.33 81.8925 445.475 70.095L454.127 65.0781C461.839 78.3503 466.256 93.7746 466.256 110.23C466.256 126.686 461.839 142.111 454.127 155.383L445.475 150.366C452.33 138.568 456.256 124.858 456.256 110.23Z" fill="white"/>
<path d="M590.88 172.586C580.128 172.586 572.064 169.658 566.688 163.802C561.312 157.85 558.384 148.682 557.904 136.298L578.352 132.842C578.544 140.234 579.552 145.706 581.376 149.258C583.296 152.714 586.128 154.442 589.872 154.442C592.656 154.442 594.672 153.578 595.92 151.85C597.168 150.026 597.792 147.722 597.792 144.938C597.792 140.33 596.736 136.442 594.624 133.274C592.608 130.01 589.392 126.458 584.976 122.618L572.88 112.106C568.08 108.074 564.384 103.754 561.792 99.1459C559.296 94.5379 558.048 89.0179 558.048 82.5859C558.048 73.0819 560.832 65.7859 566.4 60.6979C572.064 55.5139 579.84 52.9219 589.728 52.9219C600.288 52.9219 607.632 55.9939 611.76 62.1379C615.888 68.1859 618.24 75.9139 618.816 85.3219L598.224 88.3459C598.032 82.2019 597.312 77.6899 596.064 74.8099C594.912 71.8339 592.56 70.3459 589.008 70.3459C586.416 70.3459 584.4 71.3539 582.96 73.3699C581.52 75.2899 580.8 77.5939 580.8 80.2819C580.8 84.1219 581.616 87.3859 583.248 90.0739C584.976 92.6659 587.664 95.5459 591.312 98.7139L603.12 109.082C608.688 113.978 613.056 119.162 616.224 124.634C619.392 130.01 620.976 136.346 620.976 143.642C620.976 149.21 619.728 154.202 617.232 158.618C614.736 162.938 611.184 166.346 606.576 168.842C602.064 171.338 596.832 172.586 590.88 172.586Z" fill="white"/>
<path d="M633.487 54.3619H670.495C690.655 54.3619 700.735 65.5459 700.735 87.9139C700.735 99.7219 697.855 108.122 692.095 113.114C686.335 118.01 678.319 120.458 668.047 120.458H657.103V171.002H633.487V54.3619ZM665.599 103.754C670.687 103.754 674.095 102.554 675.823 100.154C677.551 97.7539 678.415 93.5299 678.415 87.4819C678.415 83.5459 678.127 80.4739 677.551 78.2659C676.975 75.9619 675.727 74.1859 673.807 72.9379C671.983 71.6899 669.199 71.0659 665.455 71.0659H657.103V103.754H665.599Z" fill="white"/>
<path d="M712.8 54.3619H763.632V70.7779H736.416V101.738H757.44V118.298H736.416V154.874H763.92V171.002H712.8V54.3619Z" fill="white"/>
<path d="M808.481 172.586C796.097 172.586 787.313 169.274 782.129 162.65C776.945 155.93 774.353 146.282 774.353 133.706V91.9459C774.353 79.0819 776.897 69.3859 781.985 62.8579C787.169 56.2339 796.001 52.9219 808.481 52.9219C820.385 52.9219 828.785 55.8499 833.681 61.7059C838.673 67.4659 841.169 75.7699 841.169 86.6179V96.4099H818.129V85.6099C818.129 82.1539 817.937 79.3699 817.553 77.2579C817.265 75.1459 816.401 73.4179 814.961 72.0739C813.617 70.6339 811.505 69.9139 808.625 69.9139C804.305 69.9139 801.521 71.3059 800.273 74.0899C799.025 76.8739 798.401 80.9539 798.401 86.3299V139.322C798.401 144.794 799.121 148.874 800.561 151.562C802.001 154.25 804.689 155.594 808.625 155.594C812.657 155.594 815.249 154.25 816.401 151.562C817.553 148.778 818.129 144.698 818.129 139.322V127.946H841.169V137.594C841.169 148.73 838.721 157.37 833.825 163.514C828.929 169.562 820.481 172.586 808.481 172.586Z" fill="white"/>
<path d="M866.619 71.9299H848.619V54.3619H908.235V71.9299H890.523V171.002H866.619V71.9299Z" fill="white"/>
<path d="M918.815 54.3619H949.055C961.631 54.3619 971.087 56.6659 977.423 61.2739C983.759 65.8819 986.927 73.8499 986.927 85.1779C986.927 92.7619 985.871 98.9059 983.759 103.61C981.647 108.218 977.903 111.722 972.527 114.122L988.655 171.002H964.319L951.071 118.154H942.431V171.002H918.815V54.3619ZM949.487 104.042C955.055 104.042 958.943 102.698 961.151 100.01C963.455 97.2259 964.607 92.9059 964.607 87.0499C964.607 81.2899 963.599 77.0659 961.583 74.3779C959.567 71.6899 955.919 70.3459 950.639 70.3459H942.431V104.042H949.487Z" fill="white"/>
<path d="M1002.77 54.3619H1053.6V70.7779H1026.38V101.738H1047.41V118.298H1026.38V154.874H1053.89V171.002H1002.77V54.3619Z" fill="white"/>
</svg>
