<svg width="24" height="24" viewBox="0 0 24 24" fill="none" xmlns="http://www.w3.org/2000/svg">
<path d="M13.1726 2.42764C18.4536 3.07662 22.1949 7.87181 21.5453 13.1477C20.9919 17.5223 17.5514 20.9955 13.1726 21.5123V23.9159C19.7889 23.2549 24.6008 17.3901 23.9392 10.7802C23.3978 5.07161 18.8626 0.564847 13.1726 0V2.42764ZM4.35477 21.2839C6.17701 22.8014 8.40791 23.7465 10.7666 24V21.5964C9.05527 21.3753 7.43486 20.6987 6.07502 19.6375L4.35477 21.2839ZM6.07502 4.45869C7.42235 3.37707 9.04636 2.68002 10.7666 2.43966V0.036054C8.42082 0.264397 6.18329 1.16575 4.35477 2.68002L6.07502 4.45869ZM4.37882 6.09314L2.65857 4.37456C1.15444 6.19811 0.228808 8.42834 0 10.7802H2.40595C2.63451 9.07361 3.30818 7.45118 4.37882 6.09314ZM2.41798 13.1838H0.0120297C0.252625 15.5393 1.17891 17.7626 2.6706 19.5894L4.37882 17.8708C3.31651 16.5123 2.63927 14.8935 2.41798 13.1838ZM9.56364 17.3901L16.7815 11.982L9.56364 6.57386V17.3901Z" fill="white"/>
</svg>
