<svg width="55" height="24" viewBox="0 0 55 24" fill="none" xmlns="http://www.w3.org/2000/svg">
<path d="M13.1726 2.42764C18.4536 3.07662 22.1949 7.87181 21.5453 13.1477C20.9919 17.5223 17.5514 20.9955 13.1726 21.5123V23.9159C19.7889 23.2549 24.6008 17.3901 23.9392 10.7802C23.3978 5.07161 18.8626 0.564847 13.1726 0V2.42764ZM4.35477 21.2839C6.17701 22.8014 8.40791 23.7465 10.7666 24V21.5964C9.05527 21.3753 7.43486 20.6987 6.07502 19.6375L4.35477 21.2839ZM6.07502 4.45869C7.42235 3.37707 9.04636 2.68002 10.7666 2.43966V0.036054C8.42082 0.264397 6.18329 1.16575 4.35477 2.68002L6.07502 4.45869ZM4.37882 6.09314L2.65857 4.37456C1.15444 6.19811 0.228808 8.42834 0 10.7802H2.40595C2.63451 9.07361 3.30818 7.45118 4.37882 6.09314ZM2.41798 13.1838H0.0120297C0.252625 15.5393 1.17891 17.7626 2.6706 19.5894L4.37882 17.8708C3.31651 16.5123 2.63927 14.8935 2.41798 13.1838ZM9.56364 17.3901L16.7815 11.982L9.56364 6.57386V17.3901Z" fill="white"/>
<path d="M27.8699 12.8469H26.4695V15.97H24.7117V7.43872H27.8817C28.8895 7.43872 29.6668 7.66333 30.2137 8.11255C30.7606 8.56177 31.034 9.19653 31.034 10.0168C31.034 10.5989 30.907 11.0852 30.6531 11.4758C30.4031 11.8625 30.0223 12.1711 29.5106 12.4016L31.3563 15.8879V15.97H29.4695L27.8699 12.8469ZM26.4695 11.4231H27.8875C28.3289 11.4231 28.6707 11.3118 28.9129 11.0891C29.1551 10.8625 29.2762 10.552 29.2762 10.1575C29.2762 9.75513 29.1609 9.43872 28.9305 9.20825C28.7039 8.97778 28.3543 8.86255 27.8817 8.86255H26.4695V11.4231Z" fill="white"/>
<path d="M35.1824 16.0872C34.2527 16.0872 33.4949 15.802 32.909 15.2317C32.327 14.6614 32.0359 13.9016 32.0359 12.9524V12.7883C32.0359 12.1516 32.159 11.5833 32.4051 11.0833C32.6512 10.5793 32.9988 10.1926 33.4481 9.9231C33.9012 9.64966 34.4168 9.51294 34.9949 9.51294C35.8621 9.51294 36.5438 9.78638 37.0399 10.3333C37.5399 10.8801 37.7899 11.6555 37.7899 12.6594V13.3508H33.7527C33.8074 13.7649 33.9715 14.0969 34.2449 14.3469C34.5223 14.5969 34.8719 14.7219 35.2938 14.7219C35.9461 14.7219 36.4559 14.4856 36.8231 14.0129L37.6551 14.9446C37.4012 15.304 37.0574 15.5852 36.6238 15.7883C36.1902 15.9875 35.7098 16.0872 35.1824 16.0872ZM34.9891 10.884C34.6531 10.884 34.3797 10.9973 34.1688 11.2239C33.9617 11.4504 33.8289 11.7747 33.7703 12.1965H36.1258V12.0618C36.118 11.6868 36.0164 11.3977 35.8211 11.1946C35.6258 10.9875 35.3484 10.884 34.9891 10.884Z" fill="white"/>
<path d="M42.1902 14.218C42.1902 14.011 42.0867 13.8489 41.8797 13.7317C41.6766 13.6106 41.3484 13.5032 40.8953 13.4094C39.3875 13.093 38.6336 12.4524 38.6336 11.4875C38.6336 10.925 38.866 10.4563 39.3309 10.0813C39.7996 9.70239 40.4109 9.51294 41.1649 9.51294C41.9695 9.51294 42.6121 9.70239 43.0926 10.0813C43.577 10.4602 43.8192 10.9524 43.8192 11.5579H42.1258C42.1258 11.3157 42.0477 11.1165 41.8914 10.9602C41.7352 10.8 41.491 10.72 41.159 10.72C40.8738 10.72 40.6531 10.7844 40.4969 10.9133C40.3406 11.0422 40.2625 11.2063 40.2625 11.4055C40.2625 11.593 40.3504 11.7454 40.5262 11.8625C40.7059 11.9758 41.0067 12.0754 41.4285 12.1614C41.8504 12.2434 42.2059 12.3372 42.4949 12.4426C43.3895 12.7708 43.8367 13.3391 43.8367 14.1477C43.8367 14.7258 43.5887 15.1946 43.0926 15.554C42.5965 15.9094 41.9559 16.0872 41.1707 16.0872C40.6395 16.0872 40.1668 15.9934 39.7527 15.8059C39.3426 15.6145 39.0203 15.3547 38.7859 15.0266C38.5516 14.6946 38.4344 14.3372 38.4344 13.9543H40.0399C40.0555 14.2551 40.1668 14.4856 40.3738 14.6458C40.5809 14.8059 40.8582 14.886 41.2059 14.886C41.5301 14.886 41.7742 14.8254 41.9383 14.7043C42.1063 14.5793 42.1902 14.4172 42.1902 14.218Z" fill="white"/>
<path d="M47.8504 16.0872C46.9207 16.0872 46.1629 15.802 45.577 15.2317C44.9949 14.6614 44.7039 13.9016 44.7039 12.9524V12.7883C44.7039 12.1516 44.827 11.5833 45.0731 11.0833C45.3192 10.5793 45.6668 10.1926 46.116 9.9231C46.5692 9.64966 47.0848 9.51294 47.6629 9.51294C48.5301 9.51294 49.2117 9.78638 49.7078 10.3333C50.2078 10.8801 50.4578 11.6555 50.4578 12.6594V13.3508H46.4207C46.4754 13.7649 46.6395 14.0969 46.9129 14.3469C47.1902 14.5969 47.5399 14.7219 47.9617 14.7219C48.6141 14.7219 49.1238 14.4856 49.491 14.0129L50.3231 14.9446C50.0692 15.304 49.7254 15.5852 49.2918 15.7883C48.8582 15.9875 48.3777 16.0872 47.8504 16.0872ZM47.657 10.884C47.3211 10.884 47.0477 10.9973 46.8367 11.2239C46.6297 11.4504 46.4969 11.7747 46.4383 12.1965H48.7938V12.0618C48.7859 11.6868 48.6844 11.3977 48.4891 11.1946C48.2938 10.9875 48.0164 10.884 47.657 10.884Z" fill="white"/>
<path d="M53.452 8.07153V9.63013H54.5359V10.8723H53.452V14.0364C53.452 14.2708 53.4969 14.4387 53.5867 14.5403C53.6766 14.6418 53.8484 14.6926 54.1024 14.6926C54.2899 14.6926 54.4559 14.679 54.6004 14.6516V15.9348C54.2684 16.0364 53.9266 16.0872 53.575 16.0872C52.3875 16.0872 51.782 15.4875 51.7586 14.2883V10.8723H50.8328V9.63013H51.7586V8.07153H53.452Z" fill="white"/>
</svg>
