<svg width="41" height="24" viewBox="0 0 41 24" fill="none" xmlns="http://www.w3.org/2000/svg">
<path d="M13.1726 2.42764C18.4536 3.07662 22.1949 7.87181 21.5453 13.1477C20.9919 17.5223 17.5514 20.9955 13.1726 21.5123V23.9159C19.7889 23.2549 24.6008 17.3901 23.9392 10.7802C23.3978 5.07161 18.8626 0.564847 13.1726 0V2.42764ZM4.35477 21.2839C6.17701 22.8014 8.40791 23.7465 10.7666 24V21.5964C9.05527 21.3753 7.43486 20.6987 6.07502 19.6375L4.35477 21.2839ZM6.07502 4.45869C7.42235 3.37707 9.04636 2.68002 10.7666 2.43966V0.036054C8.42082 0.264397 6.18329 1.16575 4.35477 2.68002L6.07502 4.45869ZM4.37882 6.09314L2.65857 4.37456C1.15444 6.19811 0.228808 8.42834 0 10.7802H2.40595C2.63451 9.07361 3.30818 7.45118 4.37882 6.09314ZM2.41798 13.1838H0.0120297C0.252625 15.5393 1.17891 17.7626 2.6706 19.5894L4.37882 17.8708C3.31651 16.5123 2.63927 14.8935 2.41798 13.1838ZM9.56364 17.3901L16.7815 11.982L9.56364 6.57386V17.3901Z" fill="white"/>
<path d="M28.6434 15.97H26.95V9.44263L24.9285 10.0696V8.69263L28.4617 7.427H28.6434V15.97Z" fill="white"/>
<path d="M31.5789 15.1379C31.5789 14.8684 31.6688 14.6497 31.8484 14.4817C32.032 14.3137 32.2606 14.2297 32.534 14.2297C32.8113 14.2297 33.0399 14.3137 33.2195 14.4817C33.4031 14.6497 33.4949 14.8684 33.4949 15.1379C33.4949 15.4036 33.4051 15.6204 33.2254 15.7883C33.0457 15.9524 32.8152 16.0344 32.534 16.0344C32.2567 16.0344 32.0281 15.9524 31.8484 15.7883C31.6688 15.6204 31.5789 15.4036 31.5789 15.1379Z" fill="white"/>
<path d="M35.1649 11.7747L35.657 7.43872H40.4383V8.85083H37.0457L36.8348 10.6848C37.2371 10.47 37.6649 10.3625 38.118 10.3625C38.9305 10.3625 39.5672 10.6145 40.0281 11.1184C40.4891 11.6223 40.7195 12.3274 40.7195 13.2336C40.7195 13.7844 40.6024 14.2786 40.368 14.7161C40.1375 15.1497 39.8055 15.4875 39.3719 15.7297C38.9383 15.968 38.4266 16.0872 37.8367 16.0872C37.3211 16.0872 36.8426 15.9836 36.4012 15.7766C35.9598 15.5657 35.6102 15.2708 35.3524 14.8918C35.0984 14.5129 34.9637 14.0813 34.9481 13.5969H36.6238C36.659 13.9524 36.782 14.2297 36.993 14.429C37.2078 14.6243 37.4871 14.7219 37.8309 14.7219C38.2137 14.7219 38.5086 14.5852 38.7156 14.3118C38.9227 14.0344 39.0262 13.6438 39.0262 13.1399C39.0262 12.6555 38.907 12.2844 38.6688 12.0266C38.4305 11.7688 38.0926 11.6399 37.6551 11.6399C37.2527 11.6399 36.9266 11.7454 36.6766 11.9563L36.5125 12.1086L35.1649 11.7747Z" fill="white"/>
</svg>
