<svg width="48" height="25" viewBox="0 0 48 25" fill="none" xmlns="http://www.w3.org/2000/svg">
<path d="M13.2226 2.45767C18.5036 3.10664 22.2449 7.90184 21.5952 13.1778C21.0419 17.5523 17.6014 21.0255 13.2226 21.5423V23.9459C19.8389 23.2849 24.6508 17.4201 23.9892 10.8102C23.4478 5.10164 18.9126 0.594877 13.2226 0.0300293V2.45767ZM4.40475 21.314C6.22699 22.8315 8.4579 23.7765 10.8166 24.03V21.6264C9.10525 21.4053 7.48485 20.7288 6.12501 19.6675L4.40475 21.314ZM6.12501 4.48872C7.47234 3.40709 9.09635 2.71005 10.8166 2.46969V0.0660833C8.4708 0.294426 6.23327 1.19578 4.40475 2.71005L6.12501 4.48872ZM4.42881 6.12317L2.70856 4.40459C1.20443 6.22814 0.278796 8.45837 0.0499878 10.8102H2.45594C2.6845 9.10364 3.35817 7.48121 4.42881 6.12317ZM2.46797 13.2138H0.0620175C0.302612 15.5693 1.2289 17.7927 2.72059 19.6194L4.42881 17.9008C3.3665 16.5423 2.68926 14.9235 2.46797 13.2138ZM9.61363 17.4201L16.8315 12.012L9.61363 6.60389V17.4201Z" fill="white"/>
<path d="M28.6934 16H27V9.47266L24.9785 10.0996V8.72266L28.5117 7.45703H28.6934V16Z" fill="white"/>
<path d="M31.6289 15.168C31.6289 14.8984 31.7188 14.6797 31.8984 14.5117C32.082 14.3438 32.3105 14.2598 32.584 14.2598C32.8613 14.2598 33.0898 14.3438 33.2695 14.5117C33.4531 14.6797 33.5449 14.8984 33.5449 15.168C33.5449 15.4336 33.4551 15.6504 33.2754 15.8184C33.0957 15.9824 32.8652 16.0645 32.584 16.0645C32.3066 16.0645 32.0781 15.9824 31.8984 15.8184C31.7188 15.6504 31.6289 15.4336 31.6289 15.168Z" fill="white"/>
<path d="M40.8105 16H34.9629V14.8398L37.7227 11.8984C38.1016 11.4844 38.3809 11.123 38.5605 10.8145C38.7441 10.5059 38.8359 10.2129 38.8359 9.93555C38.8359 9.55664 38.7402 9.25977 38.5488 9.04492C38.3574 8.82617 38.084 8.7168 37.7285 8.7168C37.3457 8.7168 37.043 8.84961 36.8203 9.11523C36.6016 9.37695 36.4922 9.72266 36.4922 10.1523H34.793C34.793 9.63281 34.916 9.1582 35.1621 8.72852C35.4121 8.29883 35.7637 7.96289 36.2168 7.7207C36.6699 7.47461 37.1836 7.35156 37.7578 7.35156C38.6367 7.35156 39.3184 7.5625 39.8027 7.98438C40.291 8.40625 40.5352 9.00195 40.5352 9.77148C40.5352 10.1934 40.4258 10.623 40.207 11.0605C39.9883 11.498 39.6133 12.0078 39.082 12.5898L37.1426 14.6348H40.8105V16Z" fill="white"/>
<path d="M42.1055 11.8047L42.5977 7.46875H47.3789V8.88086H43.9863L43.7754 10.7148C44.1777 10.5 44.6055 10.3926 45.0586 10.3926C45.8711 10.3926 46.5078 10.6445 46.9688 11.1484C47.4297 11.6523 47.6602 12.3574 47.6602 13.2637C47.6602 13.8145 47.543 14.3086 47.3086 14.7461C47.0781 15.1797 46.7461 15.5176 46.3125 15.7598C45.8789 15.998 45.3672 16.1172 44.7773 16.1172C44.2617 16.1172 43.7832 16.0137 43.3418 15.8066C42.9004 15.5957 42.5508 15.3008 42.293 14.9219C42.0391 14.543 41.9043 14.1113 41.8887 13.627H43.5645C43.5996 13.9824 43.7227 14.2598 43.9336 14.459C44.1484 14.6543 44.4277 14.752 44.7715 14.752C45.1543 14.752 45.4492 14.6152 45.6562 14.3418C45.8633 14.0645 45.9668 13.6738 45.9668 13.1699C45.9668 12.6855 45.8477 12.3145 45.6094 12.0566C45.3711 11.7988 45.0332 11.6699 44.5957 11.6699C44.1934 11.6699 43.8672 11.7754 43.6172 11.9863L43.4531 12.1387L42.1055 11.8047Z" fill="white"/>
</svg>
