<svg width="280" height="280" viewBox="0 0 280 280" fill="none" xmlns="http://www.w3.org/2000/svg">
<path d="M116.789 190.147C116.789 182.598 114.102 176.716 108.729 172.5C103.454 168.284 94.1246 163.922 80.7411 159.412C67.3575 154.902 56.4162 150.539 47.9171 146.324C20.2707 132.696 6.44756 113.971 6.44756 90.1471C6.44756 78.2843 9.86672 67.8431 16.705 58.8235C23.6411 49.7059 33.4101 42.6471 46.0121 37.6471C58.6142 32.549 72.7793 30 88.5074 30C103.845 30 117.57 32.7451 129.684 38.2353C141.895 43.7255 151.371 51.5686 158.112 61.7647C164.852 71.8627 168.223 83.4314 168.223 96.4706H116.935C116.935 87.7451 114.249 80.9804 108.876 76.1765C103.601 71.3726 96.4204 68.9706 87.3352 68.9706C78.1523 68.9706 70.8743 71.0294 65.5014 75.1471C60.2261 79.1667 57.5884 84.3137 57.5884 90.5882C57.5884 96.0784 60.5192 101.078 66.3806 105.588C72.242 110 82.5483 114.608 97.2996 119.412C112.051 124.118 124.164 129.216 133.64 134.706C156.695 148.039 168.223 166.422 168.223 189.853C168.223 208.578 161.189 223.284 147.122 233.971C133.054 244.657 113.76 250 89.2401 250C71.9489 250 56.2696 246.912 42.2022 240.735C28.2325 234.461 17.6819 225.931 10.5506 215.147C3.51685 204.265 0 191.765 0 177.647H51.5805C51.5805 189.118 54.5112 197.598 60.3726 203.088C66.3317 208.48 75.9542 211.176 89.2401 211.176C97.7392 211.176 104.431 209.363 109.315 205.735C114.298 202.01 116.789 196.814 116.789 190.147Z" fill="white"/>
<path d="M180.063 190.612L222.558 34.7294H280L208.198 248.847H151.928L94.9257 106.008H151.928L180.063 190.612Z" fill="white"/>
</svg>
