<svg width="626" height="221" viewBox="0 0 626 221" fill="none" xmlns="http://www.w3.org/2000/svg">
<path d="M116.748 159.521C116.748 152.002 114.062 146.143 108.691 141.943C103.418 137.744 94.0918 133.398 80.7129 128.906C67.334 124.414 56.3965 120.068 47.9004 115.869C20.2637 102.295 6.44531 83.6426 6.44531 59.9121C6.44531 48.0957 9.86328 37.6953 16.6992 28.7109C23.6328 19.6289 33.3984 12.5977 45.9961 7.61719C58.5938 2.53906 72.7539 0 88.4766 0C103.809 0 117.529 2.73438 129.639 8.20312C141.846 13.6719 151.318 21.4844 158.057 31.6406C164.795 41.6992 168.164 53.2227 168.164 66.2109H116.895C116.895 57.5195 114.209 50.7812 108.838 45.9961C103.564 41.2109 96.3867 38.8184 87.3047 38.8184C78.125 38.8184 70.8496 40.8691 65.4785 44.9707C60.2051 48.9746 57.5684 54.1016 57.5684 60.3516C57.5684 65.8203 60.498 70.8008 66.3574 75.293C72.2168 79.6875 82.5195 84.2773 97.2656 89.0625C112.012 93.75 124.121 98.8281 133.594 104.297C156.641 117.578 168.164 135.889 168.164 159.229C168.164 177.881 161.133 192.529 147.07 203.174C133.008 213.818 113.721 219.141 89.209 219.141C71.9238 219.141 56.25 216.064 42.1875 209.912C28.2227 203.662 17.6758 195.166 10.5469 184.424C3.51562 173.584 0 161.133 0 147.07H51.5625C51.5625 158.496 54.4922 166.943 60.3516 172.412C66.3086 177.783 75.9277 180.469 89.209 180.469C97.7051 180.469 104.395 178.662 109.277 175.049C114.258 171.338 116.748 166.162 116.748 159.521Z" fill="white"/>
<path d="M180 159.984L222.48 4.71094H279.902L208.125 217.992H151.875L94.8926 75.7109H151.875L180 159.984Z" fill="white"/>
<path d="M297.383 81.793C297.383 85.1133 296.178 87.9779 293.77 90.3867C291.361 92.7956 288.496 94 285.176 94C281.855 94 279.023 92.7956 276.68 90.3867C274.336 87.9779 273.164 85.1133 273.164 81.793C273.164 78.4727 274.336 75.6081 276.68 73.1992C279.023 70.7904 281.855 69.5859 285.176 69.5859C288.626 69.5859 291.523 70.7578 293.867 73.1016C296.211 75.4453 297.383 78.3424 297.383 81.793ZM311.836 201.031V219H259.98V201.031H275.996V134.43H259.98V116.363H296.211V201.031H311.836Z" fill="white"/>
<path d="M449.531 201.031V219H410.957V203.961C400.671 215.159 388.398 220.758 374.141 220.758C364.245 220.758 355.488 218.447 347.871 213.824C340.319 209.137 334.427 202.789 330.195 194.781C326.029 186.773 323.945 177.919 323.945 168.219C323.945 158.323 326.159 149.208 330.586 140.875C335.078 132.542 341.263 125.934 349.141 121.051C357.018 116.103 365.547 113.629 374.727 113.629C381.367 113.629 387.65 114.964 393.574 117.633C399.564 120.302 405.358 124.501 410.957 130.23V89.6055H391.133V71.832H430.977V201.031H449.531ZM377.949 202.789C384.199 202.789 389.831 201.129 394.844 197.809C399.857 194.488 403.796 190.061 406.66 184.527C409.525 178.993 410.957 173.069 410.957 166.754C410.957 160.374 409.525 154.547 406.66 149.273C403.796 144 399.824 139.833 394.746 136.773C389.668 133.714 383.939 132.184 377.559 132.184C371.374 132.184 365.84 133.844 360.957 137.164C356.139 140.419 352.331 144.781 349.531 150.25C346.732 155.654 345.332 161.448 345.332 167.633C345.332 174.273 346.764 180.263 349.629 185.602C352.493 190.94 356.4 195.139 361.348 198.199C366.296 201.259 371.829 202.789 377.949 202.789Z" fill="white"/>
<path d="M494.453 81.793C494.453 85.1133 493.249 87.9779 490.84 90.3867C488.431 92.7956 485.566 94 482.246 94C478.926 94 476.094 92.7956 473.75 90.3867C471.406 87.9779 470.234 85.1133 470.234 81.793C470.234 78.4727 471.406 75.6081 473.75 73.1992C476.094 70.7904 478.926 69.5859 482.246 69.5859C485.697 69.5859 488.594 70.7578 490.938 73.1016C493.281 75.4453 494.453 78.3424 494.453 81.793ZM508.906 201.031V219H457.051V201.031H473.066V134.43H457.051V116.363H493.281V201.031H508.906Z" fill="white"/>
<path d="M608.418 152.594V201.031H625.605V219H590.645V206.402C580.879 215.973 570.007 220.758 558.027 220.758C551.712 220.758 545.918 219.293 540.645 216.363C535.436 213.434 531.237 209.527 528.047 204.645C524.922 199.697 523.359 194.228 523.359 188.238C523.359 181.793 525.085 176.064 528.535 171.051C532.051 165.973 536.771 162.066 542.695 159.332C548.62 156.598 554.577 155.23 560.566 155.23C570.592 155.23 579.935 158.16 588.594 164.02V152.984C588.594 144.977 586.901 139.247 583.516 135.797C580.13 132.346 574.564 130.621 566.816 130.621C561.348 130.621 556.758 131.63 553.047 133.648C549.401 135.602 546.374 138.596 543.965 142.633L524.629 137.848C528.991 129.71 534.883 123.655 542.305 119.684C549.727 115.647 558.548 113.629 568.77 113.629C582.507 113.629 592.533 116.754 598.848 123.004C605.228 129.254 608.418 139.117 608.418 152.594ZM560.762 205.23C570.658 205.23 579.935 201.096 588.594 192.828V180.816C579.805 173.98 571.016 170.562 562.227 170.562C556.888 170.562 552.266 172.255 548.359 175.641C544.518 178.961 542.598 183.16 542.598 188.238C542.598 193.121 544.29 197.19 547.676 200.445C551.061 203.635 555.423 205.23 560.762 205.23Z" fill="white"/>
</svg>
